<?xml version="1.0" encoding="UTF-8"?>
<svg id="Layer_1" data-name="Layer 1" xmlns="http://www.w3.org/2000/svg" viewBox="0 0 85.04 85.04">
  <defs>
    <style>
      .cls-1 {
        fill: #fffffe;
      }

      .cls-1, .cls-2 {
        stroke-width: 0px;
      }

      .cls-2 {
        fill: #253f22;
      }
    </style>
  </defs>
  <rect class="cls-2" width="85.04" height="85.04"/>
  <path class="cls-1" d="M44.56,45.87c.39,3.75.61,6.69,1.01,9.61.32,2.33-.34,3.37-2.89,3.37-2.55,0-3.55-.83-3.15-3.43.44-2.85.64-5.73,1.04-9.45-3.39,2.3-6.14,4.18-8.9,6.05-.96.65-1.99,1.23-2.87,1.98-1.74,1.48-2.93,1.33-4.11-.75-1.69-2.99-1.73-3.2,1.4-4.71,3.91-1.88,7.84-3.74,12.48-5.95-2.28-1.15-3.93-2.01-5.61-2.82-2.18-1.06-4.38-2.07-6.58-3.11-3.46-1.64-3.54-2.13-1.44-5.37.98-1.5,1.9-1.64,3.31-.62,2.99,2.15,6.04,4.22,9.08,6.31.85.58,1.73,1.12,3.22,2.09-.39-3.67-.6-6.61-1.04-9.53-.37-2.41.43-3.33,2.92-3.34,2.53-.01,3.57.78,3.16,3.41-.45,2.84-.65,5.72-1.06,9.43,1.67-1.08,2.75-1.74,3.8-2.46,2.56-1.75,5.14-3.48,7.64-5.32,1.81-1.34,3.25-2.02,4.59.61,1.46,2.86,1.43,3.26-1.71,4.74-2.98,1.41-5.98,2.79-8.95,4.21-.92.44-1.8.96-3.3,1.78,4.61,2.2,8.57,4.19,12.62,5.96,2.34,1.02,2.79,2.21,1.47,4.44-1.19,2.01-2.23,2.6-4.31,1.05-3.62-2.69-7.41-5.15-11.82-8.19Z"/>
</svg>